<?xml version="1.0" encoding="UTF-8" standalone="no"?>
<!-- Created with Inkscape (http://www.inkscape.org/) -->

<svg
   xmlns:dc="http://purl.org/dc/elements/1.1/"
   xmlns:cc="http://creativecommons.org/ns#"
   xmlns:rdf="http://www.w3.org/1999/02/22-rdf-syntax-ns#"
   xmlns:svg="http://www.w3.org/2000/svg"
   xmlns="http://www.w3.org/2000/svg"
   xmlns:sodipodi="http://sodipodi.sourceforge.net/DTD/sodipodi-0.dtd"
   xmlns:inkscape="http://www.inkscape.org/namespaces/inkscape"
   width="210mm"
   height="297mm"
   viewBox="0 0 744.09448819 1052.3622047"
   id="svg2"
   version="1.1"
   inkscape:version="0.91 r13725"
   sodipodi:docname="logo.svg">
  <defs
     id="defs4" />
  <sodipodi:namedview
     id="base"
     pagecolor="#ffffff"
     bordercolor="#666666"
     borderopacity="1.0"
     inkscape:pageopacity="0.0"
     inkscape:pageshadow="2"
     inkscape:zoom="2"
     inkscape:cx="267.11517"
     inkscape:cy="364.64861"
     inkscape:document-units="px"
     inkscape:current-layer="layer1"
     showgrid="false"
     inkscape:window-width="1329"
     inkscape:window-height="744"
     inkscape:window-x="37"
     inkscape:window-y="24"
     inkscape:window-maximized="1" />
  <metadata
     id="metadata7">
    <rdf:RDF>
      <cc:Work
         rdf:about="">
        <dc:format>image/svg+xml</dc:format>
        <dc:type
           rdf:resource="http://purl.org/dc/dcmitype/StillImage" />
        <dc:title></dc:title>
      </cc:Work>
    </rdf:RDF>
  </metadata>
  <g
     inkscape:label="Camada 1"
     inkscape:groupmode="layer"
     id="layer1">
    <text
       xml:space="preserve"
       style="font-style:normal;font-weight:normal;font-size:180px;line-height:125%;font-family:sans-serif;letter-spacing:0px;word-spacing:0px;fill:#000000;fill-opacity:1;stroke:none;stroke-width:1px;stroke-linecap:butt;stroke-linejoin:miter;stroke-opacity:1"
       x="622.85712"
       y="529.50507"
       id="text4140"
       sodipodi:linespacing="125%"><tspan
         sodipodi:role="line"
         id="tspan4142"
         x="622.85712"
         y="529.50507" /></text>
    <text
       xml:space="preserve"
       style="font-style:normal;font-weight:normal;font-size:180px;line-height:125%;font-family:sans-serif;letter-spacing:0px;word-spacing:0px;fill:#000000;fill-opacity:1;stroke:none;stroke-width:1px;stroke-linecap:butt;stroke-linejoin:miter;stroke-opacity:1"
       x="132.5"
       y="727.36218"
       id="text4791"
       sodipodi:linespacing="125%"><tspan
         sodipodi:role="line"
         id="tspan4793"
         x="132.5"
         y="727.36218" /></text>
    <path
       id="path5145"
       d="m 408.17147,699.33771 c 0,-0.41893 1.79644,-5.98123 -1.69993,-7.66283 -4.02808,-1.93862 -5.14303,-3.48357 -5.10809,-5.96185 -0.003,0.10136 -2.43608,4.02323 -0.85273,5.96151 2.46133,2.99926 1.42145,5.32187 0,5.10878 -2.38696,-0.35735 -2.09845,-3.4725 -1.70097,-4.25709 -1.24848,-0.13249 -2.69241,0.64379 -3.40816,1.70166 -2.14757,3.1923 2.50804,6.24553 0.85274,8.51486 -1.26025,1.72864 -3.41162,-1.67502 -3.40436,-1.70165 -2.55681,13.34343 16.00749,13.68175 17.02869,2.55439 0.30442,-3.3369 3.30818,-5.15168 3.40366,-5.10809 -3.1999,-1.47853 -5.11085,0.95582 -5.11085,0.85031 z m -5.95702,9.36482 c -4.46222,0.1664 -4.00559,-3.18122 -3.40435,-4.25604 0.75933,-1.37233 2.68411,-1.64285 1.70269,-3.40712 0.0125,0.0249 2.0898,0.33867 3.40436,1.70165 2.01853,2.0853 1.78952,5.83283 -1.7027,5.96151 z m 2.55508,-20.43407 c -0.52097,-0.55869 -0.85238,-1.2305 -0.85238,-1.70339 0,-0.88594 0.7237,-1.73764 1.70339,-2.55335 0.0986,0.7102 -0.42481,1.77326 0,2.55335 0.32967,0.57771 0.85273,1.23049 0.85273,1.70339 0,0.6334 -0.23662,1.21077 -0.85273,1.70269 -0.0934,-0.23662 -0.256,-1.01497 -0.85101,-1.70269 z"
       style="fill:#800000"
       inkscape:connector-curvature="0"
       inkscape:export-xdpi="90"
       inkscape:export-ydpi="90" />
    <text
       xml:space="preserve"
       style="font-style:normal;font-weight:normal;font-size:28.29732704px;line-height:125%;font-family:sans-serif;letter-spacing:0px;word-spacing:0px;fill:#000000;fill-opacity:1;stroke:none;stroke-width:1px;stroke-linecap:butt;stroke-linejoin:miter;stroke-opacity:1"
       x="210.28403"
       y="708.31866"
       id="text5202"
       sodipodi:linespacing="125%"
       inkscape:export-xdpi="90"
       inkscape:export-ydpi="90"><tspan
         sodipodi:role="line"
         id="tspan5204"
         x="210.28403"
         y="708.31866">&lt;/&gt;<tspan
   style="fill:#800000"
   id="tspan5206">Code</tspan><tspan
   style="fill:#666666"
   id="tspan5208">Fire</tspan></tspan></text>
  </g>
</svg>
